<svg width="1296" height="800" viewBox="0 0 1296 800" fill="none" xmlns="http://www.w3.org/2000/svg">
<g opacity="0.2">
<mask id="mask0_2_35" style="mask-type:alpha" maskUnits="userSpaceOnUse" x="0" y="-114" width="1308" height="967">
<rect y="-113.629" width="1308" height="965.63" fill="url(#paint0_linear_2_35)"/>
</mask>
<g mask="url(#mask0_2_35)">
<path d="M1306.85 579.142C1319.56 591.706 1319.56 612.075 1306.85 624.639C1294.15 637.203 1273.54 637.203 1260.84 624.639L1108.19 473.715C1095.49 461.152 1095.49 440.782 1108.19 428.218C1120.9 415.655 1141.5 415.655 1154.21 428.218L1306.85 579.142Z" fill="#F46F17"/>
<path d="M885.333 710.555C864.514 701.077 859.616 673.991 875.823 657.968C885.738 648.164 900.847 645.646 913.465 651.693L932.543 660.837C984.394 685.687 1038.58 631.341 1012.7 580.437L1003.39 562.127C997.275 550.093 999.648 535.538 1009.28 526.015C1024.66 510.806 1050.63 515.162 1060.07 534.537L1152.77 724.657C1163.08 745.8 1158.74 771.077 1141.96 787.674C1125.43 804.018 1100.35 808.451 1079.12 798.783L885.333 710.555Z" fill="#121212" fill-opacity="0.25"/>
<path d="M1354.53 515.51C1364.12 536.093 1391.51 540.936 1407.72 524.912C1417.63 515.109 1420.18 500.171 1414.06 487.695L1404.81 468.832C1379.68 417.566 1434.65 363.994 1486.13 389.579L1504.65 398.781C1516.82 404.829 1531.54 402.483 1541.17 392.96C1556.56 377.751 1552.15 352.08 1532.55 342.74L1340.27 251.084C1318.88 240.891 1293.32 245.18 1276.53 261.777C1260 278.121 1255.52 302.916 1265.3 323.911L1354.53 515.51Z" fill="#121212" fill-opacity="0.5"/>
<path d="M808.141 1055.74C817.727 1076.32 845.121 1081.16 861.327 1065.14C871.243 1055.34 873.79 1040.4 867.673 1027.92L858.426 1009.06C833.292 957.794 888.258 904.223 939.743 929.807L958.261 939.01C970.432 945.058 985.153 942.712 994.785 933.188C1010.17 917.98 1005.76 892.309 986.166 882.968L793.878 791.313C772.494 781.12 746.929 785.409 730.143 802.006C713.612 818.35 709.128 843.145 718.906 864.139L808.141 1055.74Z" fill="#121212" fill-opacity="0.5"/>
<path d="M821.29 99.054C833.997 111.618 833.997 131.987 821.29 144.551C808.583 157.115 787.982 157.115 775.275 144.551L622.63 -6.37275C609.923 -18.9364 609.923 -39.306 622.63 -51.8697C635.337 -64.4333 655.939 -64.4333 668.646 -51.8697L821.29 99.054Z" fill="#F46F17"/>
<path d="M274.902 639.283C287.609 651.846 287.609 672.216 274.902 684.78C262.195 697.343 241.593 697.343 228.886 684.78L76.2414 533.856C63.5345 521.292 63.5346 500.923 76.2414 488.359C88.9483 475.795 109.55 475.795 122.257 488.359L274.902 639.283Z" fill="#F46F17"/>
<path d="M399.77 230.467C378.952 220.989 374.054 193.903 390.261 177.88C400.176 168.076 415.284 165.558 427.903 171.605L446.981 180.749C498.831 205.599 553.014 151.252 527.138 100.349L517.83 82.0386C511.713 70.0052 514.086 55.4502 523.718 45.927C539.1 30.7182 565.064 35.0743 574.511 54.4489L667.211 244.569C677.521 265.712 673.183 290.989 656.396 307.586C639.866 323.93 614.788 328.363 593.554 318.695L399.77 230.467Z" fill="#121212" fill-opacity="0.25"/>
<path d="M868.967 35.4219C878.554 56.0053 905.948 60.8482 922.154 44.8245C932.07 35.0206 934.617 20.0829 928.5 7.60658L919.252 -11.256C894.118 -62.5223 949.085 -116.094 1000.57 -90.5094L1019.09 -81.3067C1031.26 -75.2587 1045.98 -77.6051 1055.61 -87.1282C1070.99 -102.337 1066.59 -128.008 1046.99 -137.348L854.704 -229.004C833.32 -239.197 807.756 -234.908 790.969 -218.311C774.439 -201.967 769.955 -177.172 779.733 -156.177L868.967 35.4219Z" fill="#121212" fill-opacity="0.5"/>
<path d="M322.578 575.651C332.165 596.234 359.559 601.077 375.765 585.053C385.681 575.249 388.228 560.312 382.111 547.835L372.864 528.973C347.73 477.706 402.696 424.135 454.181 449.719L472.699 458.922C484.87 464.97 499.591 462.624 509.223 453.1C524.605 437.892 520.199 412.221 500.604 402.88L308.316 311.225C286.932 301.032 261.367 305.321 244.58 321.918C228.05 338.262 223.566 363.057 233.344 384.051L322.578 575.651Z" fill="#121212" fill-opacity="0.5"/>
<path d="M1074 26.7217C1061.3 14.158 1040.69 14.158 1027.99 26.7217C1015.28 39.2853 1015.28 59.655 1027.99 72.2186L1180.63 223.142C1193.34 235.706 1213.94 235.706 1226.65 223.142C1239.35 210.579 1239.35 190.209 1226.65 177.645L1074 26.7217Z" fill="#F46F17"/>
<path d="M527.615 566.95C514.908 554.387 494.306 554.387 481.599 566.95C468.892 579.514 468.892 599.884 481.599 612.447L634.244 763.371C646.951 775.935 667.553 775.935 680.259 763.371C692.966 750.807 692.966 730.438 680.259 717.874L527.615 566.95Z" fill="#F46F17"/>
<path d="M941.092 443.489C950.679 464.073 978.073 468.916 994.279 452.892C1004.19 443.088 1006.74 428.15 1000.63 415.674L991.377 396.812C966.243 345.545 1021.21 291.974 1072.69 317.558L1091.21 326.761C1103.38 332.809 1118.1 330.463 1127.74 320.939C1143.12 305.731 1138.71 280.06 1119.12 270.719L926.829 179.063C905.445 168.871 879.881 173.16 863.094 189.757C846.564 206.101 842.08 230.895 851.858 251.89L941.092 443.489Z" fill="#121212" fill-opacity="0.25"/>
<path d="M394.703 983.718C404.29 1004.3 431.684 1009.14 447.89 993.121C457.806 983.317 460.353 968.379 454.236 955.903L444.989 937.04C419.855 885.774 474.821 832.203 526.306 857.787L544.824 866.99C556.995 873.038 571.716 870.691 581.348 861.168C596.73 845.959 592.324 820.289 572.729 810.948L380.441 719.292C359.057 709.099 333.492 713.389 316.705 729.986C300.175 746.33 295.691 771.124 305.469 792.119L394.703 983.718Z" fill="#121212" fill-opacity="0.25"/>
<path d="M591.973 519.811C571.154 510.333 566.256 483.248 582.463 467.224C592.378 457.42 607.487 454.902 620.105 460.949L639.183 470.093C691.034 494.943 745.216 440.597 719.34 389.693L710.032 371.383C703.915 359.349 706.288 344.794 715.92 335.271C731.302 320.062 757.266 324.418 766.713 343.793L859.414 533.913C869.723 555.056 865.385 580.333 848.598 596.93C832.068 613.274 806.991 617.707 785.756 608.039L591.973 519.811Z" fill="#121212" fill-opacity="0.5"/>
<path d="M42.0529 86.8622C29.346 74.2985 8.74407 74.2985 -3.96281 86.8622C-16.6697 99.4258 -16.6697 119.795 -3.96281 132.359L148.682 283.283C161.389 295.846 181.991 295.846 194.697 283.283C207.404 270.719 207.404 250.349 194.697 237.786L42.0529 86.8622Z" fill="#F46F17"/>
<path d="M-90.8587 503.63C-81.2723 524.214 -53.8783 529.056 -37.6719 513.033C-27.7562 503.229 -25.2092 488.291 -31.3258 475.815L-40.5735 456.952C-65.7075 405.686 -10.741 352.114 40.7434 377.699L59.2621 386.902C71.4327 392.95 86.1537 390.603 95.7854 381.08C111.168 365.871 106.762 340.2 87.1664 330.86L-105.121 239.204C-126.506 229.011 -152.07 233.3 -168.857 249.897C-185.387 266.241 -189.871 291.036 -180.093 312.031L-90.8587 503.63Z" fill="#121212" fill-opacity="0.25"/>
<path d="M106.411 39.7229C85.5925 30.2445 80.6944 3.15934 96.9008 -12.8643C106.816 -22.6682 121.925 -25.1866 134.543 -19.1388L153.621 -9.99542C205.472 14.8552 259.654 -39.4916 233.778 -90.3956L224.47 -108.705C218.353 -120.739 220.726 -135.294 230.358 -144.817C245.74 -160.026 271.704 -155.67 281.151 -136.295L373.852 53.8248C384.161 74.9679 379.823 100.244 363.036 116.842C346.506 133.185 321.429 137.619 300.194 127.951L106.411 39.7229Z" fill="#121212" fill-opacity="0.5"/>
</g>
</g>
<defs>
<linearGradient id="paint0_linear_2_35" x1="1308" y1="-113.629" x2="10.6506" y2="866.103" gradientUnits="userSpaceOnUse">
<stop stop-color="#D9D9D9"/>
<stop offset="0.610726" stop-color="#D9D9D9" stop-opacity="0"/>
</linearGradient>
</defs>
</svg>
